# Blender v2.79 (sub 0) OBJ File: 'chestlx.obj'
# www.blender.org
mtllib chestLid.mtl
o Plane.001
v 2.546355 2.598761 1.855770
v 2.642679 2.202132 1.855769
v 2.642679 2.202132 -1.855769
v 2.546355 2.598761 -1.855769
v 2.362629 3.045851 1.855770
v 2.362629 3.045851 -1.855769
v 2.600564 1.885431 -1.855769
v 2.484609 1.611361 -1.855769
v 2.305236 1.373906 -1.855769
v 2.052022 1.179083 -1.855769
v 1.660369 1.064188 -1.855769
v 1.181315 0.999754 -1.855769
v 1.660369 1.064188 1.855769
v 1.181315 0.999754 1.855769
v 2.600564 1.885431 1.855769
v 2.484609 1.611361 1.855769
v 2.305236 1.373906 1.855769
v 2.052022 1.179083 1.855769
v 2.408755 2.554259 -1.717630
v 2.494044 2.194244 -1.722190
v 2.494044 2.194244 1.722190
v 2.408755 2.554259 1.717630
v 2.294283 2.927472 -1.755437
v 2.294283 2.927472 1.755436
v 1.249661 1.118133 -1.755437
v 1.630109 1.205604 -1.717630
v 1.984535 1.311749 -1.722190
v 2.200857 1.477367 -1.720127
v 2.357688 1.684639 -1.719687
v 2.458776 1.924095 -1.720127
v 1.249661 1.118133 1.755436
v 1.630109 1.205604 1.717630
v 2.357688 1.684639 1.719687
v 2.458776 1.924095 1.720127
v 1.984535 1.311749 1.722190
v 2.200857 1.477367 1.720127
vt 0.713784 0.611037
vt 0.645703 0.611037
vt 0.645703 0.000000
vt 0.713784 0.000000
vt 0.792605 0.611037
vt 0.792605 0.000000
vt 0.866182 0.918344
vt 0.819095 0.869723
vt 0.798725 0.821103
vt 0.792605 0.772482
vt 0.798725 0.723862
vt 0.819095 0.675241
vt 0.866182 0.626621
vt 0.930138 0.578001
vt 0.930138 0.966964
vt 0.473817 0.000000
vt 0.552638 0.000000
vt 0.552638 0.611037
vt 0.473817 0.611037
vt 0.594634 0.611037
vt 0.552638 0.611037
vt 0.552638 0.000000
vt 0.594634 0.000000
vt 0.354667 0.000000
vt 0.405736 0.000000
vt 0.405736 0.611037
vt 0.354667 0.611037
vt 0.312671 0.000000
vt 0.312671 0.611037
vt 0.026490 0.708277
vt 0.073577 0.659657
vt 0.137533 0.611037
vt 0.137533 1.000000
vt 0.073577 0.951380
vt 0.026490 0.902759
vt 0.006120 0.854139
vt 0.000000 0.805518
vt 0.006120 0.756898
vt 0.935586 0.571776
vt 0.874012 0.572527
vt 0.874012 0.005474
vt 0.935586 0.006224
vt 1.000000 0.578001
vt 1.000000 0.000000
vt 0.665882 0.611037
vt 0.665882 0.954992
vt 0.617907 0.911204
vt 0.575502 0.866896
vt 0.558020 0.825476
vt 0.552638 0.783015
vt 0.558020 0.740553
vt 0.575502 0.699133
vt 0.617907 0.654825
vt 0.230167 0.022742
vt 0.294581 0.016518
vt 0.294581 0.594519
vt 0.230167 0.588294
vt 0.830029 0.572187
vt 0.792605 0.572115
vt 0.792605 0.005886
vt 0.830029 0.005813
vt 0.124610 0.022331
vt 0.168593 0.021991
vt 0.168593 0.589045
vt 0.124610 0.588705
vt 0.087186 0.022403
vt 0.087186 0.588633
vt 0.142914 0.825476
vt 0.137533 0.783014
vt 0.142914 0.740553
vt 0.160397 0.699133
vt 0.202801 0.654825
vt 0.250777 0.611037
vt 0.250777 0.954992
vt 0.202801 0.911204
vt 0.160397 0.866896
vt 0.000000 0.611037
vt 0.000000 0.000000
vt 0.018090 0.016518
vt 0.018090 0.594519
vt 0.312671 0.000000
vt 0.312671 0.611037
vn 0.9718 0.2360 0.0000
vn 0.9249 0.3801 0.0000
vn -0.0000 0.0000 -1.0000
vn 0.1333 -0.9911 -0.0000
vn 0.9210 -0.3896 -0.0000
vn 0.6098 -0.7926 -0.0000
vn 0.2815 -0.9596 -0.0000
vn 0.9913 -0.1318 -0.0000
vn 0.7979 -0.6028 -0.0000
vn 0.0000 -0.0000 1.0000
vn -0.9731 -0.2305 -0.0000
vn -0.9560 -0.2932 -0.0000
vn -0.0597 0.0345 0.9976
vn -0.2241 0.9746 0.0000
vn -0.9213 0.3889 0.0000
vn -0.6079 0.7940 0.0000
vn -0.2869 0.9580 0.0000
vn -0.9916 0.1295 0.0000
vn -0.7974 0.6034 0.0000
vn -0.0597 0.0345 -0.9976
vn -0.8660 0.5000 0.0000
usemtl Brown
s 1
f 1/1/1 2/2/1 3/3/1 4/4/1
f 5/5/2 1/1/2 4/4/2 6/6/2
f 4/7/3 3/8/3 7/9/3 8/10/3 9/11/3 10/12/3 11/13/3 12/14/3 6/15/3
f 13/16/4 14/17/4 12/18/4 11/19/4
f 15/20/5 16/21/5 8/22/5 7/23/5
f 17/24/6 18/25/6 10/26/6 9/27/6
f 18/25/7 13/16/7 11/19/7 10/26/7
f 2/2/8 15/20/8 7/23/8 3/3/8
f 16/28/9 17/24/9 9/27/9 8/29/9
f 2/30/10 1/31/10 5/32/10 14/33/10 13/34/10 18/35/10 17/36/10 16/37/10 15/38/10
f 19/39/11 20/40/11 21/41/11 22/42/11
f 23/43/12 19/39/12 22/42/12 24/44/12
f 23/45/13 25/46/13 26/47/13 27/48/13 28/49/13 29/50/13 30/51/13 20/52/13 19/53/13
f 26/54/14 25/55/14 31/56/14 32/57/14
f 30/58/15 29/59/15 33/60/15 34/61/15
f 28/62/16 27/63/16 35/64/16 36/65/16
f 27/63/17 26/54/17 32/57/17 35/64/17
f 20/40/18 30/58/18 34/61/18 21/41/18
f 29/66/19 28/62/19 36/65/19 33/67/19
f 34/68/20 33/69/20 36/70/20 35/71/20 32/72/20 31/73/20 24/74/20 22/75/20 21/76/20
f 5/77/21 6/78/21 23/79/21 24/80/21
f 6/78/21 12/81/21 25/55/21 23/79/21
f 12/81/21 14/82/21 31/56/21 25/55/21
f 14/82/21 5/77/21 24/80/21 31/56/21
