# Blender v2.79 (sub 0) OBJ File: 'chest.obj'
# www.blender.org
o Plane.001
v -1.962114 0.353290 1.855769
v -1.665481 0.633650 1.855769
v -1.665481 0.633650 -1.855769
v -1.962115 0.353290 -1.855769
v -2.259216 -0.027991 1.855769
v -2.259216 -0.027991 -1.855769
v -1.369590 0.754155 -1.855769
v -1.074094 0.789399 -1.855769
v -0.778939 0.751414 -1.855769
v -0.484179 0.628166 -1.855769
v -0.190162 0.345064 -1.855769
v 0.103387 -0.038959 -1.855769
v -0.190161 0.345064 1.855769
v 0.103388 -0.038959 1.855769
v -1.369589 0.754155 1.855769
v -1.074093 0.789399 1.855769
v -0.778938 0.751414 1.855769
v -0.484178 0.628166 1.855769
v -1.855226 0.255879 -1.717630
v -1.584912 0.508497 -1.722190
v -1.584912 0.508497 1.722190
v -1.855225 0.255879 1.717630
v -2.122525 -0.028626 -1.755437
v -2.122525 -0.028625 1.755436
v -0.033303 -0.038324 -1.755437
v -0.297950 0.248649 -1.717630
v -0.565906 0.503766 -1.722190
v -0.817008 0.609464 -1.720127
v -1.074774 0.642844 -1.719687
v -1.332840 0.611859 -1.720127
v -0.033303 -0.038324 1.755436
v -0.297950 0.248650 1.717630
v -1.074774 0.642845 1.719687
v -1.332839 0.611859 1.720127
v -0.565905 0.503766 1.722190
v -0.817008 0.609464 1.720127
vn -0.6869 0.7268 0.0000
vn -0.7888 0.6146 0.0000
vn -0.0000 -0.0000 -1.0000
vn 0.7945 0.6073 -0.0000
vn -0.1184 0.9930 -0.0000
vn 0.3858 0.9226 -0.0000
vn 0.6936 0.7204 -0.0000
vn -0.3772 0.9261 -0.0000
vn 0.1276 0.9918 -0.0000
vn 0.0000 0.0000 1.0000
vn 0.6828 -0.7306 -0.0000
vn 0.7288 -0.6847 -0.0000
vn -0.0003 -0.0690 0.9976
vn -0.7351 -0.6779 0.0000
vn 0.1192 -0.9929 0.0000
vn -0.3880 -0.9217 0.0000
vn -0.6895 -0.7242 0.0000
vn 0.3794 -0.9252 0.0000
vn -0.1284 -0.9917 0.0000
vn -0.0003 -0.0690 -0.9976
vn -0.0046 -1.0000 0.0000
s 1
f 1//1 2//1 3//1 4//1
f 5//2 1//2 4//2 6//2
f 4//3 3//3 7//3 8//3 9//3 10//3 11//3 12//3 6//3
f 13//4 14//4 12//4 11//4
f 15//5 16//5 8//5 7//5
f 17//6 18//6 10//6 9//6
f 18//7 13//7 11//7 10//7
f 2//8 15//8 7//8 3//8
f 16//9 17//9 9//9 8//9
f 2//10 1//10 5//10 14//10 13//10 18//10 17//10 16//10 15//10
f 19//11 20//11 21//11 22//11
f 23//12 19//12 22//12 24//12
f 23//13 25//13 26//13 27//13 28//13 29//13 30//13 20//13 19//13
f 26//14 25//14 31//14 32//14
f 30//15 29//15 33//15 34//15
f 28//16 27//16 35//16 36//16
f 27//17 26//17 32//17 35//17
f 20//18 30//18 34//18 21//18
f 29//19 28//19 36//19 33//19
f 34//20 33//20 36//20 35//20 32//20 31//20 24//20 22//20 21//20
f 5//21 6//21 23//21 24//21
f 6//21 12//21 25//21 23//21
f 12//21 14//21 31//21 25//21
f 14//21 5//21 24//21 31//21
